<?xml version="1.0" encoding="utf-8"?>
<!-- Generator: Adobe Illustrator 28.2.0, SVG Export Plug-In . SVG Version: 6.00 Build 0)  -->
<svg version="1.1" id="OpenFile_logo" xmlns="http://www.w3.org/2000/svg" xmlns:xlink="http://www.w3.org/1999/xlink" x="0px"
	 y="0px" viewBox="0 0 141 37" style="enable-background:new 0 0 141 37;" xml:space="preserve" width="141" height="37">
<style type="text/css">
	.st0{fill:#1B1B1B;}
</style>
<g id="OpenFile">
	<path class="st0" d="M9.8,16C9.8,8.6,14,4.2,20,4.2S30.1,8.6,30.1,16s-4.2,12-10.2,12S9.8,23.5,9.8,16z M25.9,16
		c0-5.2-2.3-8.3-6-8.3s-6,3.1-6,8.3s2.3,8.5,6,8.5S25.9,21.2,25.9,16z"/>
	<path class="st0" d="M32.8,10.3h3.3l0.3,1.8h0.1c1.5-1.3,3.3-2.3,5.2-2.3c4.3,0,6.8,3.5,6.8,8.8c0,5.9-3.5,9.3-7.4,9.3
		c-1.5,0-3-0.7-4.4-1.9l0.1,2.9v5.5h-4.1L32.8,10.3L32.8,10.3z M44.4,18.8c0-3.5-1.1-5.5-3.8-5.5c-1.3,0-2.4,0.6-3.8,1.9v8.1
		c1.2,1.1,2.5,1.4,3.5,1.4C42.6,24.7,44.4,22.7,44.4,18.8L44.4,18.8z"/>
	<path class="st0" d="M49.9,19c0-5.6,3.9-9.1,8-9.1c4.7,0,7.1,3.4,7.1,8.2c0,0.8-0.1,1.5-0.2,2h-11c0.3,3.1,2.3,4.8,5.1,4.8
		c1.5,0,2.7-0.5,4-1.3l1.4,2.5c-1.6,1.1-3.7,1.9-5.9,1.9C53.6,28.1,49.9,24.7,49.9,19L49.9,19z M61.5,17.3c0-2.7-1.2-4.3-3.5-4.3
		c-2,0-3.8,1.5-4.1,4.3H61.5z"/>
	<path class="st0" d="M67.3,10.3h3.3l0.3,2.3H71c1.5-1.5,3.3-2.8,5.7-2.8c3.7,0,5.3,2.5,5.3,6.9v10.8h-4.1V17.3
		c0-2.8-0.8-3.9-2.7-3.9c-1.5,0-2.5,0.7-3.9,2.2v12.1h-4.1L67.3,10.3L67.3,10.3z"/>
	<path class="st0" d="M85.7,4.6h13.9V8h-9.8v6.5h8.4V18h-8.4v9.6h-4.1L85.7,4.6L85.7,4.6z"/>
	<path class="st0" d="M101.2,5c0-1.4,1.1-2.3,2.5-2.3c1.4,0,2.5,0.9,2.5,2.3s-1.1,2.3-2.5,2.3C102.3,7.3,101.2,6.3,101.2,5z
		 M101.7,10.3h4.1v17.3h-4.1V10.3z"/>
	<path class="st0" d="M109.3,23.2V2.8h4.1v20.6c0,1,0.4,1.3,0.9,1.3c0.2,0,0.3,0,0.6-0.1l0.5,3c-0.5,0.2-1.2,0.4-2.1,0.4
		C110.4,28.1,109.3,26.2,109.3,23.2L109.3,23.2z"/>
	<path class="st0" d="M116.1,19c0-5.6,3.9-9.1,8-9.1c4.7,0,7.1,3.4,7.1,8.2c0,0.8-0.1,1.5-0.2,2h-11c0.3,3.1,2.3,4.8,5.1,4.8
		c1.5,0,2.7-0.5,4-1.3l1.4,2.5c-1.6,1.1-3.7,1.9-5.9,1.9C119.8,28.1,116.1,24.7,116.1,19L116.1,19z M127.7,17.3
		c0-2.7-1.2-4.3-3.5-4.3c-2,0-3.8,1.5-4.1,4.3H127.7L127.7,17.3z"/>
</g>
</svg>
