<?xml version="1.0" encoding="UTF-8"?><svg id="a" xmlns="http://www.w3.org/2000/svg" viewBox="0 0 141.33 36.98" height="37" width="141"><defs><style>.c{fill:#1b1b1b;stroke-width:0px;}</style></defs><g id="b"><path class="c" d="M0,15.5C0,6.82,4.84,1.71,11.82,1.71s11.82,5.14,11.82,13.79-4.84,14.01-11.82,14.01S0,24.17,0,15.5ZM18.76,15.5c0-6.02-2.72-9.66-6.94-9.66s-6.94,3.64-6.94,9.66,2.72,9.87,6.94,9.87,6.94-3.85,6.94-9.87Z"/><path class="c" d="M26.75,8.87h3.87l.36,2.15h.13c1.7-1.46,3.85-2.64,6.07-2.64,5.04,0,7.92,4.03,7.92,10.25,0,6.89-4.12,10.87-8.59,10.87-1.79,0-3.54-.8-5.18-2.21l.15,3.35v6.35h-4.72V8.87ZM40.25,18.68c0-4.02-1.31-6.4-4.38-6.4-1.46,0-2.84.74-4.4,2.26v9.38c1.44,1.23,2.87,1.67,4.03,1.67,2.69,0,4.74-2.36,4.74-6.92Z"/><path class="c" d="M46.66,18.96c0-6.54,4.54-10.58,9.28-10.58,5.45,0,8.32,3.94,8.32,9.56,0,.9-.1,1.8-.21,2.3h-12.78c.39,3.58,2.69,5.61,5.94,5.61,1.72,0,3.2-.54,4.67-1.46l1.61,2.94c-1.92,1.3-4.35,2.18-6.9,2.18-5.56,0-9.92-3.9-9.92-10.55ZM60.17,17.02c0-3.1-1.38-4.99-4.13-4.99-2.34,0-4.41,1.75-4.82,4.99h8.95Z"/><path class="c" d="M66.89,8.87h3.87l.36,2.72h.13c1.8-1.75,3.85-3.21,6.61-3.21,4.31,0,6.2,2.92,6.2,8v12.63h-4.72v-12.02c0-3.31-.95-4.56-3.13-4.56-1.77,0-2.94.87-4.59,2.51v14.07h-4.72V8.87Z"/><path class="c" d="M88.37,2.2h16.2v4h-11.45v7.61h9.74v4h-9.74v11.2h-4.76V2.2Z"/><path class="c" d="M106.44,2.67c0-1.59,1.25-2.67,2.92-2.67s2.92,1.08,2.92,2.67-1.25,2.67-2.92,2.67-2.92-1.12-2.92-2.67ZM106.99,8.87h4.72v20.14h-4.72V8.87Z"/><path class="c" d="M115.84,23.83V.05h4.72v24.03c0,1.16.52,1.57,1.02,1.57.21,0,.38,0,.74-.08l.59,3.53c-.57.23-1.36.41-2.49.41-3.35,0-4.58-2.17-4.58-5.67Z"/><path class="c" d="M123.74,18.96c0-6.54,4.54-10.58,9.28-10.58,5.45,0,8.32,3.94,8.32,9.56,0,.9-.1,1.8-.21,2.3h-12.78c.39,3.58,2.69,5.61,5.94,5.61,1.72,0,3.2-.54,4.67-1.46l1.61,2.94c-1.92,1.3-4.35,2.18-6.9,2.18-5.56,0-9.92-3.9-9.92-10.55ZM137.25,17.02c0-3.1-1.38-4.99-4.13-4.99-2.35,0-4.41,1.75-4.82,4.99h8.95Z"/></g></svg>